# xmcd
#
# Track frame offsets:
#	150
#	13037
#	27887
#	45097
#	65140
#	84457
#	98162
#	110607
#	123642
#	137930
#	152615
#	168607
#	182830
#
# Disc length: 2678 seconds
#
# Revision: 2
# Processed by: cddbd v1.5.1PL0 Copyright (c) Steve Scherf et al.
# Submitted via: audiograbber 1.80.04
#
DISCID=ac0a740d
DTITLE=Dolly Parton - Hungry Again
DYEAR=1998
DGENRE=Country
TTITLE0=A personal message about the album
TTITLE1=Hungry Again
TTITLE2=The Salt In My Tears
TTITLE3=Honky Tonk Songs
TTITLE4=Blue Valley Songbird
TTITLE5=I Wanna Go Back There
TTITLE6=When Jesus Comes Calling For Me
TTITLE7=Time And Tears
TTITLE8=I'll Never Say Goodbye
TTITLE9=The Camel's Heart
TTITLE10=I Still Lost You
TTITLE11=Paradise Road
TTITLE12=Shine On
EXTD=
EXTT0=
EXTT1=
EXTT2=
EXTT3=
EXTT4=
EXTT5=
EXTT6=
EXTT7=
EXTT8=
EXTT9=
EXTT10=
EXTT11=
EXTT12=
PLAYORDER=
